Patient4_TMGait_0pt3_02_right_11_EMG.mot
version=1
nRows=33
nColumns=33
inDegrees=no
endheader
time	1LAddLong	2LGlutMax	3LGlutMed	4LIliopsoas	5LSemiMemb	6LBicFemLong	7LRecFem	8LVastMed	9LVastLat	10LGasMed	11LTibAnt	12lTibPost	13LPeroneusLong	14LSol	15LExtDigLong	16LFlexDigLong	17RAddLong	18RGlutMax	19RGlutMed	20RIliopsoas	21RSemiMemb	22RBicFemLong	23RRecFem	24RVastMed	25RVastLat	26RGasMed	27RTibAnt	28RTibPost	29RPeroneusLong	30RSol	31RExtDigLong	32RFlexDigLong
22.523	0.021362	0.033417	-0.21042	-0.00412	0.006714	0.14481	-0.24109	0.00885	-0.13062	0.063782	-0.040131	0.13901	-0.12314	-0.16739	-0.006256	0.018005	0.065918	-0.005798	0.7605	-0.18784	-0.049133	-0.11841	-0.053558	-0.065308	0.005951	-0.009766	0.29327	-0.003815	-0.080261	0.078583	-0.005035	-0.02182
22.524	0.009155	0.028839	-0.074615	0.005188	-0.003052	0.55069	-0.21362	0.002747	-0.097046	0.089417	-0.069122	0.052643	-0.20264	0.25207	-0.11673	0.001831	0.064697	-0.021057	0.97336	-0.16968	-0.058441	-0.10834	-0.079803	-0.12817	-0.01709	-0.002441	0.66361	-0.005493	0.038605	0.010529	-0.006561	-0.007629
22.525	0.008087	-0.010529	-0.019684	-0.006256	-0.010223	0.68863	-0.084076	-0.006561	-0.014496	-0.15472	-0.12528	0.006409	-0.00351	0.19287	-0.27359	-0.019226	0.11383	-0.090942	1.2035	-0.073242	-0.069427	-0.10223	-0.10727	-0.15472	0.002899	-0.004578	1.1668	-0.004883	-0.057526	0.026855	-0.005493	-0.006561
22.526	0.00351	0.059052	0.062408	0.003204	-0.010681	0.19791	0.009308	-0.011139	0.039215	-0.34821	-0.10468	-0.006256	-0.12436	0.21698	-0.10269	0.009003	0.10986	-0.070953	1.3724	0.10635	-0.082703	-0.1152	-0.011902	-0.13046	-0.00412	-0.005493	0.24689	-0.005035	-0.056458	0.049896	-0.010071	-0.00946
22.527	0.00412	0.079193	0.10712	-0.016479	-0.014801	0.46081	0.068817	-0.023956	0.019073	-0.22018	-0.082397	0.00351	-0.037079	0.16022	0.030823	0.018463	0.067291	-0.062561	1.5491	0.24704	-0.081787	-0.10422	0.082092	-0.071869	-0.020294	-0.005798	-0.50201	-0.006104	-0.011292	0.11108	-0.010223	-0.017395
22.528	0.007324	0.10681	-0.007782	-0.010223	-0.014954	0.48569	0.10727	-0.002899	0.006256	-0.10559	0.072479	-0.01236	-0.11795	-0.075836	0.11292	0.005341	0.033417	-0.11719	1.2566	0.18845	-0.093689	-0.11124	0.29007	0.00824	-0.007477	-0.007019	-0.88852	-0.001831	-0.008698	0.066223	-0.006714	-0.01297
22.529	0.005493	0.077667	-0.18845	0.008087	0.0383	0.32349	0.054779	0.007629	-0.056152	-0.11765	0.35187	-0.015869	0.087738	-0.43945	0.17273	-0.015106	0.020752	-0.12314	1.2663	0.037689	-0.081177	-0.10651	0.31036	0.071106	0.005493	-0.021057	-0.49622	-0.002747	-0.11353	-0.055847	-0.005951	-0.011292
22.53	-0.004425	0.075989	-0.13809	0.006866	0.048828	-0.65826	0.058136	0.014343	-0.057831	-0.20309	0.28122	-0.010223	0.40558	-0.55176	0.15396	0.005951	0.00351	-0.17578	1.3721	-0.075531	-0.058441	-0.087585	0.18036	0.074463	-0.00412	-0.019379	0.016327	-0.005188	-0.12985	0.035553	-0.007019	-0.013885
22.531	-0.010529	0.15274	-0.10498	-0.003204	0	-1.1266	0.04425	0.003815	-0.060425	-0.16052	0.031281	-0.019379	0.10025	-0.16388	0.05722	0.005646	0.001526	-0.18509	1.4488	-0.20248	-0.055237	-0.10269	0.24811	0.11444	0.003204	-0.014191	-0.3624	-0.002136	-0.11429	-0.013733	-0.006409	-0.003357
22.532	0.00946	0.20065	-0.12726	0.018768	-0.085602	-1.0446	0.030365	0.010986	-0.02182	-0.085144	-0.085907	-0.02594	-0.62241	0.41824	0.062256	-0.009003	-0.03479	-0.14008	1.4124	-0.1796	-0.039673	-0.078583	0.35934	0.13992	0.007172	-0.012512	-0.7486	-0.002136	-0.007935	-0.14206	-0.017853	0.002594
22.533	-0.010071	0.23285	-0.19486	0.016022	-0.12177	-0.7016	-0.016632	0.006256	0.032501	-0.07782	0.019073	-0.022278	-0.39002	0.63019	-0.075226	0.011749	-0.02594	-0.10086	1.521	-0.14923	-0.046692	-0.065918	0.4042	0.14862	0.019073	-0.003662	0.0177	-0.002441	0.035248	-0.27802	-0.00824	0.000458
22.534	0.007477	0.26672	-0.010986	0.001068	-0.027771	-0.43671	-0.017548	-0.000763	0.058594	-0.17944	0.028381	-0.023041	-0.1593	0.60486	-0.13977	-0.004425	-0.015411	-0.10178	1.4659	-0.10483	-0.045471	-0.066986	0.38971	0.12985	0.019531	-0.001984	1.4371	-0.001526	-0.14572	-0.26398	-0.007324	0.002747
22.535	0.009003	0.29465	0.38071	0.005951	0.081329	-0.31525	0.008545	0.010529	0.087891	0.066681	0.068359	-0.006714	0.47867	0.39414	-0.13306	-0.007172	-0.031128	-0.029907	1.4603	-0.10269	-0.029602	-0.036316	0.38925	0.093994	0.012817	-0.001984	1.6154	-0.007782	-0.22446	-0.21057	-0.004272	-0.001373
22.536	0.026703	0.23331	0.48248	0.009308	0.10681	-0.31998	-0.041504	0.00946	0.006866	0.41626	0.077362	-0.025177	-0.085449	0.13062	-0.097961	0.002441	-0.043182	-0.13641	1.4122	0.007019	-0.013733	-0.033417	0.43381	0.047455	0.002289	-0.004425	1.3536	-0.001984	-0.080872	-0.16327	-0.005951	0
22.537	0.020294	0.1561	0.24735	0.010376	0.085754	-0.10956	-0.11108	0.004425	-0.075684	0.24445	-0.077972	-0.010986	-0.36652	0.13153	0.097809	0.005188	-0.018463	-0.15366	1.4104	0.15228	-0.036621	-0.03952	0.47714	0.080872	0.017548	0.001831	0.20493	-0.001526	0.32318	-0.17441	-0.013885	-0.002747
22.538	0.009155	0.18066	0.14893	0.023651	0.049896	-0.00824	-0.12665	-0.00351	-0.049133	0.19226	-0.099792	-0.006866	0.24094	0.006714	0.1445	0.008545	-0.012207	-0.16327	1.246	0.18448	-0.034027	-0.068054	0.62363	0.087128	0.033569	-0.000305	-0.64896	-0.005646	0.1532	-0.054932	-0.007782	-0.000763
22.539	0.01709	0.168	0.032043	-0.000305	0.037079	0.023041	-0.22446	0.000305	-0.046082	-0.11932	-0.11688	-0.025177	0.5188	-0.073853	0.074158	0.005646	-0.007782	-0.16571	1.2178	0.22278	-0.03952	-0.070496	0.6665	0.099487	0.060425	-0.017395	-0.7196	-0.005035	-0.096893	0.20874	-0.004883	-0.003357
22.54	0.010834	0.050354	-0.023193	-0.011902	0.0177	0.050201	-0.21927	0.014191	-0.048065	-0.41687	-0.11734	-0.025177	0.41641	-0.053101	0.06897	0.031738	0.000916	-0.16205	1.1342	0.12787	-0.040741	-0.063477	0.51697	0.056	0.044556	-0.013733	-1.291	-0.004578	0.031586	0.19226	-0.003815	-0.009918
22.541	0.008087	0.033722	-0.079803	0.009003	0.022278	-0.093231	-0.17395	0.025024	-0.049896	-0.23743	-0.041656	-0.019989	0.31998	-0.10864	-0.003052	0.037384	0.001526	-0.21881	1.0356	0.054169	-0.053558	-0.050354	0.44083	0.067596	0.041809	0.001984	-1.2804	-0.002136	0.4631	0.14435	-0.006409	-0.005188
22.542	-0.007782	0.04837	-0.15717	0.032654	-0.002594	0.17242	-0.18204	0.022125	-0.02594	0.032043	-0.049744	-0.022888	0.070038	-0.077972	-0.048676	0.013885	0.023041	-0.18372	0.90866	-0.010681	-0.064697	-0.072174	0.30792	0.081635	0.046844	-0.002289	-0.60165	-0.002899	0.23941	0.097198	-0.001068	-0.006714
22.543	-0.00946	0.077667	-0.16373	0.01358	-0.006866	0.20783	-0.16602	0.027466	-0.031128	0.2243	-0.029755	0.003815	0.13611	-0.027466	-0.057526	0.025177	0.033264	-0.16205	0.72006	-0.16647	-0.035858	-0.040588	0.26611	0.09903	0.037384	-0.003357	0.046234	-0.002747	0.10193	0.027618	-0.005798	-0.002594
22.544	-0.011292	0.11917	-0.040131	-0.002594	-0.002747	0.15152	-0.20706	0.012207	-0.029297	0.19531	0.028534	0.000153	-0.22659	0.09201	-0.007782	-0.007477	0.041809	-0.08606	0.81726	-0.35111	-0.027771	-0.025635	0.27344	0.068817	0.033264	-0.010834	0.10376	-0.005188	-0.000153	0.054932	-0.00412	-0.016632
22.545	-0.008545	0.041809	-0.071564	-0.03418	-0.016327	0.54245	-0.13825	0.014496	-0.005951	-0.088806	-0.011139	-0.02594	-0.63263	0.35538	-0.050201	-0.01709	0.019836	-0.063019	0.62912	-0.24063	-0.020447	-0.030518	0.24963	0.092316	0.032196	-0.016479	0.6044	-0.001831	-0.068207	0.032959	-0.006104	-0.008698
22.546	-0.011292	0.066681	0.057373	-0.023193	-0.013123	0.63126	-0.11185	0.006866	0.024719	-0.060425	-0.005188	0.034332	-0.66391	0.36941	-0.006409	0.050507	-0.002441	-0.076294	0.56442	0.054474	-0.021973	-0.027161	0.17517	0.11551	0.027771	-0.021667	1.0077	0.000153	-0.023651	-0.072632	-0.005951	-0.008698
22.547	0.002747	0.18021	0.074615	-0.018311	-0.000916	-0.10101	-0.10788	-0.008545	0.067902	-0.10315	0.014954	-0.032654	-0.62164	-0.24277	-0.046082	0.042572	0.010529	-0.1294	0.57068	0.17822	-0.021515	-0.047302	0.112	0.11261	0.013885	-0.014343	1.1966	-0.001678	0.061951	-0.23148	-0.007477	-0.008392
22.548	0.001526	0.19455	0.009918	-0.002289	0.016022	-0.043182	-0.002594	-0.011444	0.046692	-0.012054	0.002747	0.00473	-0.10773	-0.042572	0.012512	-0.062103	-0.014038	-0.086975	0.52338	0.10834	-0.019531	-0.041809	0.10635	0.090485	-0.007782	-0.01358	-0.67261	-0.000916	0.024109	-0.10712	-0.004578	-0.000916
22.549	-0.005035	0.15335	-0.036163	-0.002136	0.018158	-0.11093	0.11963	-0.007629	0.078735	0.071106	-0.030975	0	0.058746	-0.27695	0.007019	-0.080719	-0.007477	-0.18585	0.51132	0.072174	-0.026703	-0.051727	0.14404	0.094147	0.006714	-0.014038	-0.80139	-0.002594	0.002899	0.03479	-0.001068	-0.007324
22.55	-0.005798	0.17624	0.1384	-0.008392	0.008087	-0.20966	0.22888	-0.005798	0.1239	0.043335	-0.009003	-0.003204	0.13428	-0.64011	0.058594	-0.049591	0.032501	-0.22003	0.27283	0.090637	-0.032043	-0.084839	0.11322	0.077667	0.018005	-0.009613	-0.21622	-0.007477	0.049744	0.038452	-0.004578	0.000458
22.551	-0.009003	0.11627	0.21042	0.013885	-0.013733	0.16678	0.1683	-0.005035	-0.025177	0.039368	0.012054	0.000916	0.18249	-0.44403	0.085754	-0.019073	0.056458	-0.16205	0.20889	0.10284	-0.049133	-0.083771	0.14893	0.073242	0.01358	0.004272	-0.3595	-0.004425	0.1152	-0.074921	-0.002136	0.009003
22.552	-0.014496	0.037079	-0.018005	0.011444	-0.016632	0.3743	0.10239	0.011292	-0.097351	0.023346	0.003357	-0.023499	0.050049	0.080261	0.094757	0.077362	0.096283	-0.068054	0.25864	0.1236	-0.06485	-0.094757	0.15259	0.032806	0.007782	0.001984	0.36758	-0.00351	0.15137	-0.11536	-0.004578	0.00473
22.553	-0.00473	0.015869	-0.025787	0.000916	-0.025482	0.35797	0.042877	0.050354	-0.063629	0.009308	-0.006866	-0.001373	-0.027618	0.1413	0.003662	0.16785	0.11124	-0.033722	0.24933	0.10223	-0.064392	-0.09903	0.12375	-0.003815	0.003967	-0.00061	0.42206	-0.007782	0.045471	-0.052338	-0.007629	0.002899
22.554	-0.023651	-0.012512	-0.020294	-0.023346	-0.006409	0.31464	0.033569	0.039063	-0.00412	0.018921	0.027771	-0.027313	0.11276	0.32318	-0.23529	0.036316	0.086212	-0.06073	0.23346	0.10757	-0.050049	-0.095062	0.20065	0.012817	0.003967	-0.003052	-0.15854	-0.003815	-0.39337	-0.025024	-0.008087	-0.001526
22.555	-0.009155	-0.048218	-0.19501	0.018768	-0.016327	0.033569	0.010834	0.012207	0.093842	0.032959	0.077209	-0.026398	0.15518	0.49255	-0.10727	-0.026245	0.061798	-0.041656	0.079041	0.13519	-0.039825	-0.10376	0.2739	0.015259	-0.002594	-0.014648	0.14206	-0.002747	-0.27496	0.026093	0.001984	-0.005188
